<svg xmlns="http://www.w3.org/2000/svg" width="24" height="16.908" viewBox="0 0 24 16.908">
  <g id="XMLID_184_" transform="translate(0 -3.546)">
    <path id="Path_6198" data-name="Path 6198" d="M23.5,6.186A3.016,3.016,0,0,0,21.376,4.05c-1.871-.5-9.376-.5-9.376-.5s-7.505,0-9.377.5A3.015,3.015,0,0,0,.5,6.186,31.6,31.6,0,0,0,0,12a31.6,31.6,0,0,0,.5,5.814A3.016,3.016,0,0,0,2.624,19.95c1.871.5,9.376.5,9.376.5s7.505,0,9.377-.5A3.018,3.018,0,0,0,23.5,17.814,31.666,31.666,0,0,0,24,12,31.6,31.6,0,0,0,23.5,6.186ZM9.546,15.569V8.431L15.818,12Z"/>
  </g>
</svg>
